<svg width="1024" height="768" xmlns="http://www.w3.org/2000/svg"><title>Layer 1</title><path fill="#7d1be5" d="M501.963 134.619c-32.6 1.8-64.1 10.5-94.5 25.8-70.2 35.5-117.5 99.7-131.7 178.8-2 11.3-2.3 16-2.3 39.8 0 30.2 1.3 40.5 8.1 65.3 22.5 82 88.6 148.1 170.6 170.6 24.8 6.8 35.1 8.1 65.3 8.1 30.2 0 40.5-1.3 65.3-8.1 94.3-25.8 164.9-107.2 177.7-204.7 2-15.5 2-46.9 0-62.4-3.4-25.9-10.8-51-22-74.2-12.9-26.6-27.4-47.1-48-67.6-50.1-50.1-117-75.5-188.5-71.4zm33.1 48.9c52.2 5.1 99.3 29.8 132.7 69.5 65.6 78.1 60.3 192.8-12.2 265-29.8 29.7-67.3 48.5-109.6 55.1-14.1 2.2-42.9 2.2-57 0-86-13.4-152.1-79.5-165.6-165.6-2.2-14-2.3-42.9-.1-56.7 6.8-43.2 25.5-80.1 55.7-110.3 41.3-41.4 99.3-62.5 156.1-57z"/><path fill="#08ad08" d="M642.163 307.372c-11.5 2.2-24.3 11.9-29.6 22.3-7.4 14.7-5.3 33.4 5.1 45.5 5.6 6.6 20.9 13.6 38.6 17.5 13.5 3.1 18.3 7.3 17.4 15.2-.8 7.9-7.2 12.4-17.2 12.4-5.8-.1-11.4-3-19.3-10.2-8.7-8.1-11.9-9.5-17.2-7.9-4.3 1.3-12.6 9.7-13.6 13.7-1.1 4.4.5 8.9 5.5 15 14.4 17.8 42 24.8 64.5 16.3 13.6-5 21.4-11.6 26.8-22.7 3.2-6.5 3.3-7 3.3-19.8 0-13 0-13.2-3.5-20-5.6-10.9-12.5-15-34-20.1-23-5.5-26.3-7.2-27.6-14-2.3-12.5 15.9-18.7 27.6-9.4 8.8 7 14.4 7.8 20.3 3 4.7-3.9 9.7-12.4 9.7-16.6 0-6.9-14.2-16.8-28.5-19.8-7.6-1.6-21.4-1.8-28.3-.4z"/><path fill="#0b69c6" d="M343.263 309.684c-1.7.8-4 2.7-5 4.2-1.7 2.6-1.8 6.5-1.8 64.4 0 45.9.3 62.2 1.2 64.2.7 1.5 2.7 3.5 4.5 4.5 2.9 1.6 6.1 1.8 29.8 1.8 30.1-.1 33.6-.6 47.9-7.6 14.2-7 28.3-22.3 34.2-37.1 4.8-12.2 6.1-27.2 3.3-40.6-4.9-24.3-25.1-45.4-50.7-53-7.6-2.2-58.8-2.9-63.4-.8zm58.9 34.5c7 2.7 15.4 10.1 19 16.8 3.9 7.2 5.4 16.5 3.9 24.4-.7 3.5-2.2 8.1-3.3 10.3-2.9 5.7-10.5 12.8-17.3 16.2-5.6 2.7-6.8 2.9-20.2 3.2l-14.3.3v-74.3l13.3.4c10.5.4 14.4.9 18.9 2.7z"/><path stroke="#e0e006" stroke-width="15" fill="#e5e510" d="M530.108 315.757c-8.516.463-16.745 2.704-24.686 6.645-18.339 9.145-30.695 25.682-34.405 46.057-.522 2.91-.6 4.121-.6 10.252 0 7.779.34 10.432 2.116 16.82 5.877 21.122 23.145 38.149 44.566 43.944 6.478 1.752 9.169 2.087 17.058 2.087 7.89 0 10.58-.335 17.058-2.087 24.634-6.645 43.077-27.613 46.42-52.728.523-3.992.523-12.08 0-16.073-.887-6.671-2.82-13.137-5.746-19.113-3.37-6.852-7.158-12.132-12.54-17.413-13.087-12.905-30.563-19.447-49.241-18.391zm8.647 12.596c13.636 1.313 25.94 7.676 34.665 17.902 17.137 20.117 15.752 49.663-3.187 68.26-7.785 7.65-17.581 12.493-28.631 14.193-3.683.567-11.207.567-14.89 0-22.466-3.451-39.733-20.478-43.26-42.656-.575-3.606-.6-11.05-.026-14.605 1.776-11.128 6.661-20.633 14.55-28.412 10.79-10.664 25.94-16.1 40.779-14.682z"/></svg>