<svg width="1024" height="768" xmlns="http://www.w3.org/2000/svg"><title>Layer 1</title><path fill="#7d1be5" d="M488.547 38.635c-45.65 2.52-89.76 14.704-132.33 36.128-98.303 49.712-164.538 139.612-184.422 250.377-2.8 15.824-3.22 22.405-3.22 55.733 0 42.29 1.82 56.713 11.342 91.44C211.424 587.14 303.985 679.702 418.81 711.209c34.728 9.522 49.151 11.343 91.44 11.343 42.29 0 56.714-1.82 91.442-11.343 132.05-36.128 230.912-150.114 248.836-286.645 2.8-21.705 2.8-65.675 0-87.38-4.76-36.268-15.123-71.416-30.807-103.904-18.064-37.248-38.369-65.955-67.215-94.661C682.35 68.462 588.67 32.894 488.547 38.635zm46.35 68.476c73.097 7.141 139.052 41.73 185.823 97.322 91.86 109.365 84.439 269.981-17.084 371.084-41.73 41.59-94.242 67.916-153.475 77.158-19.745 3.08-60.074 3.08-79.818 0C349.915 633.91 257.354 541.35 238.45 420.782c-3.08-19.604-3.22-60.074-.14-79.398 9.522-60.494 35.708-112.165 77.998-154.455 57.833-57.973 139.051-87.52 218.59-79.818z"/><text transform="matrix(10.26826 0 0 7.86827 -2210.29 -2278.335)" text-anchor="middle" font-family="Fantasy" font-size="24" y="347.736" x="272.22" opacity=".8" stroke-linecap="null" stroke-linejoin="null" stroke-dasharray="null" stroke-width="0" fill="#fbb002">U</text><text transform="matrix(10.26826 0 0 7.86827 -2210.29 -2278.335)" text-anchor="middle" font-family="Fantasy" font-size="24" y="347.732" x="284.87" opacity=".8" stroke-linecap="null" stroke-linejoin="null" stroke-dasharray="null" stroke-width="0" fill="#249a41">S</text><text transform="matrix(10.26826 0 0 7.86827 -2210.29 -2278.335)" text-anchor="middle" font-family="Fantasy" font-size="24" y="347.74" x="246.261" opacity=".8" stroke-linecap="null" stroke-linejoin="null" stroke-dasharray="null" stroke-width="0" fill="#3a7cec">V</text><text transform="matrix(10.26826 0 0 7.86827 -2210.29 -2278.335)" text-anchor="middle" font-family="Fantasy" font-size="24" y="347.727" x="259.419" opacity=".8" stroke-linecap="null" stroke-linejoin="null" stroke-dasharray="null" stroke-width="0" fill="#e63125">N</text></svg>