<svg width="1024" height="768" xmlns="http://www.w3.org/2000/svg" xmlns:svg="http://www.w3.org/2000/svg" preserveAspectRatio="xMidYMid meet">
 <metadata>Created by potrace 1.13, written by Peter Selinger 2001-2015</metadata>
 <g>
  <title>Layer 1</title>
  <g id="svg_8">
   <path stroke-width="0" fill="#7d1be5" id="svg_2" d="m501.96297,134.61851c-32.6,1.8 -64.1,10.5 -94.5,25.8c-70.2,35.5 -117.5,99.7 -131.7,178.8c-2,11.3 -2.3,16 -2.3,39.8c0,30.2 1.3,40.5 8.1,65.3c22.5,82 88.6,148.1 170.6,170.6c24.8,6.8 35.1,8.1 65.3,8.1c30.2,0 40.5,-1.3 65.3,-8.1c94.3,-25.8 164.9,-107.2 177.7,-204.7c2,-15.5 2,-46.9 0,-62.4c-3.4,-25.9 -10.8,-51 -22,-74.2c-12.9,-26.6 -27.4,-47.1 -48,-67.6c-50.1,-50.1 -117,-75.5 -188.5,-71.4zm33.1,48.9c52.2,5.1 99.3,29.8 132.7,69.5c65.6,78.1 60.3,192.8 -12.2,265c-29.8,29.7 -67.3,48.5 -109.6,55.1c-14.1,2.2 -42.9,2.2 -57,0c-86,-13.4 -152.1,-79.5 -165.6,-165.6c-2.2,-14 -2.3,-42.9 -0.1,-56.7c6.8,-43.2 25.5,-80.1 55.7,-110.3c41.3,-41.4 99.3,-62.5 156.1,-57z"/>
   <path fill="#08ad08" id="svg_3" d="m642.16298,307.3724c-11.5,2.2 -24.3,11.9 -29.6,22.3c-7.4,14.7 -5.3,33.4 5.1,45.5c5.6,6.6 20.9,13.6 38.6,17.5c13.5,3.1 18.3,7.3 17.4,15.2c-0.8,7.9 -7.2,12.4 -17.2,12.4c-5.8,-0.1 -11.4,-3 -19.3,-10.2c-8.7,-8.1 -11.9,-9.5 -17.2,-7.9c-4.3,1.3 -12.6,9.7 -13.6,13.7c-1.1,4.4 0.5,8.9 5.5,15c14.4,17.8 42,24.8 64.5,16.3c13.6,-5 21.4,-11.6 26.8,-22.7c3.2,-6.5 3.3,-7 3.3,-19.8c0,-13 0,-13.2 -3.5,-20c-5.6,-10.9 -12.5,-15 -34,-20.1c-23,-5.5 -26.3,-7.2 -27.6,-14c-2.3,-12.5 15.9,-18.7 27.6,-9.4c8.8,7 14.4,7.8 20.3,3c4.7,-3.9 9.7,-12.4 9.7,-16.6c0,-6.9 -14.2,-16.8 -28.5,-19.8c-7.6,-1.6 -21.4,-1.8 -28.3,-0.4z"/>
   <path fill="#0b69c6" id="svg_4" d="m343.26297,309.68438c-1.7,0.8 -4,2.7 -5,4.2c-1.7,2.6 -1.8,6.5 -1.8,64.4c0,45.9 0.3,62.2 1.2,64.2c0.7,1.5 2.7,3.5 4.5,4.5c2.9,1.6 6.1,1.8 29.8,1.8c30.1,-0.1 33.6,-0.6 47.9,-7.6c14.2,-7 28.3,-22.3 34.2,-37.1c4.8,-12.2 6.1,-27.2 3.3,-40.6c-4.9,-24.3 -25.1,-45.4 -50.7,-53c-7.6,-2.2 -58.8,-2.9 -63.4,-0.8zm58.9,34.5c7,2.7 15.4,10.1 19,16.8c3.9,7.2 5.4,16.5 3.9,24.4c-0.7,3.5 -2.2,8.1 -3.3,10.3c-2.9,5.7 -10.5,12.8 -17.3,16.2c-5.6,2.7 -6.8,2.9 -20.2,3.2l-14.3,0.3l0,-37.1l0,-37.2l13.3,0.4c10.5,0.4 14.4,0.9 18.9,2.7z"/>
   <path stroke="#e0e006" id="svg_6" stroke-width="15" fill="#e5e510" d="m530.10784,315.75667c-8.51612,0.46366 -16.74488,2.70466 -24.68629,6.64573c-18.33838,9.14432 -30.69459,25.68136 -34.40406,46.05645c-0.52246,2.91073 -0.60083,4.12138 -0.60083,10.25194c0,7.77911 0.3396,10.43225 2.11597,16.82039c5.87769,21.12209 23.14503,38.14855 44.56593,43.94424c6.47852,1.75159 9.16919,2.08645 17.05836,2.08645c7.88916,0 10.57984,-0.33486 17.05835,-2.08645c24.63404,-6.64573 43.07692,-27.61326 46.42067,-52.72793c0.52246,-3.99259 0.52246,-12.0808 0,-16.07339c-0.88818,-6.67149 -2.82129,-13.13691 -5.74707,-19.11291c-3.36987,-6.8518 -7.15772,-12.13232 -12.53907,-17.41284c-13.08765,-12.90508 -30.56397,-19.44777 -49.24196,-18.39167zm8.64673,12.59597c13.63623,1.31369 25.94019,7.67607 34.66529,17.90225c17.13672,20.1175 15.7522,49.66265 -3.18701,68.26039c-7.78467,7.65032 -17.58082,12.49294 -28.63087,14.19301c-3.68335,0.56669 -11.20679,0.56669 -14.89014,0c-22.46583,-3.45166 -39.73317,-20.47812 -43.25978,-42.65631c-0.57471,-3.60621 -0.60083,-11.05046 -0.02612,-14.60515c1.77637,-11.12773 6.66138,-20.63267 14.55054,-28.41178c10.78882,-10.66408 25.94019,-16.09915 40.77809,-14.68242z"/>
  </g>
 </g>
</svg>