<svg width="1024" height="768" xmlns="http://www.w3.org/2000/svg" xmlns:svg="http://www.w3.org/2000/svg" preserveAspectRatio="xMidYMid meet">
 <metadata>Created by potrace 1.13, written by Peter Selinger 2001-2015</metadata>
 <g>
  <title>Layer 1</title>
  <g id="svg_21">
   <path stroke-width="0" fill="#7d1be5" id="svg_2" d="m488.54684,38.6352c-45.65038,2.52057 -89.76041,14.70334 -132.33009,36.12821c-98.30235,49.7113 -164.53741,139.61174 -184.42193,250.37693c-2.80064,15.8236 -3.22073,22.40509 -3.22073,55.73267c0,42.28962 1.82041,56.7129 11.34258,91.44079c31.50716,114.82611 124.06821,207.38716 238.89432,238.89432c34.7279,9.52217 49.15118,11.34258 91.44079,11.34258c42.28962,0 56.7129,-1.82041 91.44079,-11.34258c132.05003,-36.12821 230.9125,-150.11413 248.83658,-286.64518c2.80064,-21.70494 2.80064,-65.67493 0,-87.37987c-4.76108,-36.26825 -15.12344,-71.41624 -30.807,-103.90363c-18.06411,-37.24847 -38.36872,-65.955 -67.21528,-94.66152c-70.15595,-70.15595 -163.83725,-105.72404 -263.96002,-99.98273zm46.35054,68.47557c73.09662,7.14162 139.05162,41.72949 185.82225,97.32213c91.86089,109.36487 84.4392,269.98139 -17.08388,371.08438c-41.72949,41.58946 -94.24143,67.91544 -153.4749,77.15754c-19.74449,3.0807 -60.07366,3.0807 -79.81815,0c-120.42738,-18.76427 -212.98843,-111.32531 -231.89273,-231.89273c-3.0807,-19.60446 -3.22073,-60.07366 -0.14003,-79.39805c9.52217,-60.49376 35.70812,-112.1655 77.99774,-154.45512c57.83315,-57.97318 139.05162,-87.5199 218.5897,-79.81815z"/>
   <text transform="matrix(10.268264957031587,0,0,7.868274753572387,-2210.2904918009494,-2278.335241965529) " xml:space="preserve" text-anchor="middle" font-family="Fantasy" font-size="24" id="svg_14" y="347.73603" x="272.21952" opacity="0.8" stroke-linecap="null" stroke-linejoin="null" stroke-dasharray="null" stroke-width="0" fill="#fbb002">U</text>
   <text id="svg_18" transform="matrix(10.268264957031587,0,0,7.868274753572387,-2210.2904918009494,-2278.335241965529) " xml:space="preserve" text-anchor="middle" font-family="Fantasy" font-size="24" y="347.73162" x="284.86952" opacity="0.8" stroke-linecap="null" stroke-linejoin="null" stroke-dasharray="null" stroke-width="0" fill="#249a41">S</text>
   <text id="svg_19" transform="matrix(10.268264957031587,0,0,7.868274753572387,-2210.2904918009494,-2278.335241965529) " xml:space="preserve" text-anchor="middle" font-family="Fantasy" font-size="24" y="347.73981" x="246.26081" opacity="0.8" stroke-linecap="null" stroke-linejoin="null" stroke-dasharray="null" stroke-width="0" fill="#3a7cec">V</text>
   <text id="svg_20" transform="matrix(10.268264957031587,0,0,7.868274753572387,-2210.2904918009494,-2278.335241965529) " xml:space="preserve" text-anchor="middle" font-family="Fantasy" font-size="24" y="347.72666" x="259.41893" opacity="0.8" stroke-linecap="null" stroke-linejoin="null" stroke-dasharray="null" stroke-width="0" fill="#e63125">N</text>
  </g>
 </g>
</svg>